<svg width="16" height="16" viewBox="0 0 16 16" fill="none" xmlns="http://www.w3.org/2000/svg">
<path d="M9.86063 0.178114C9.79023 0.326894 8.23092 3.47337 8.23092 3.47337C8.23092 3.47337 8.10765 3.48124 8.03792 3.48256C7.26839 3.51428 6.69524 3.68844 6.08092 3.99738C4.71239 4.69196 3.78691 6.00127 3.61014 7.49282C3.51931 8.2378 3.62522 8.99301 3.91787 9.68711C4.1653 10.2739 4.51531 10.7951 4.98454 11.2351C5.70436 11.9107 6.56094 12.329 7.55384 12.4675C8.4941 12.5988 9.39838 12.4688 10.2457 12.0547C10.5636 11.8995 10.834 11.7282 11.15 11.4932C11.1903 11.4679 11.226 11.4357 11.2746 11.3992C11.8797 12.4205 12.4781 13.4302 13.076 14.4389C10.4284 16.4104 6.30923 16.6487 3.25991 14.3783C-0.249203 11.7635 -0.825956 7.30182 1.05277 4.09015C3.21357 0.396033 7.25714 -0.420943 9.86063 0.178114ZM13.9438 6.82178L16 10.2757L13.9269 13.7488L11.9042 10.3113H7.80533L9.8748 6.82178H13.9438ZM12.4394 0.56888C12.9552 0.578726 13.4348 0.703657 13.8394 1.04016C14.1381 1.28849 14.2913 1.60356 14.3183 1.97966C14.3633 2.61416 14.0934 3.1001 13.5573 3.43923C13.2424 3.63877 12.9028 3.79302 12.5622 3.97572C12.3744 4.07658 12.2138 4.16519 12.0302 4.34767C11.8687 4.5308 11.8608 4.70342 11.8608 4.70342L14.3008 4.70036V5.75735H10.5346V5.65518C10.5202 5.13576 10.5825 4.64698 10.827 4.17526C11.0519 3.74248 11.4015 3.42567 11.8215 3.18171C12.1449 2.99377 12.4855 2.83383 12.8096 2.64676C13.0096 2.53146 13.1509 2.36233 13.1497 2.11706C13.1497 1.90658 12.9923 1.71952 12.7673 1.6611C12.2369 1.52195 11.6971 1.74402 11.4163 2.21618C11.3754 2.2851 11.3336 2.35358 11.2805 2.44197C11.1268 2.29494 10.9844 2.15929 10.8427 2.02276C10.7582 1.94137 10.6767 1.8567 10.5901 1.77728L10.5665 1.75459L10.5288 1.71602C10.5249 1.7119 10.5226 1.70945 10.5226 1.70945C10.5226 1.70945 10.53 1.69425 10.5389 1.67592L10.5647 1.62368C10.7305 1.30009 10.9903 1.06357 11.2985 0.87541C11.6392 0.66576 12.0363 0.559088 12.4394 0.56888Z" fill="#6B7482"/>
</svg>
