<svg width="60" height="60" viewBox="0 0 60 60" fill="none" xmlns="http://www.w3.org/2000/svg">
<path d="M43.9487 19.3948C51.1945 23.8377 56 30.0526 56 30.0526C56 30.0526 44.361 45.1053 29.9984 45.1053C28.3043 45.1053 26.6481 44.8957 25.0442 44.5259M15.9664 40.658C8.76909 36.2187 4 30.0526 4 30.0526C4 30.0526 15.6423 15 29.9984 15C31.6901 15 33.344 15.2088 34.9456 15.5773" stroke="#25282D" stroke-width="2" stroke-linecap="round" stroke-linejoin="round"/>
<path d="M37.631 27.0162C38.0049 27.9554 38.2105 28.98 38.2105 30.0527C38.2105 34.5849 34.5354 38.2632 30 38.2632M22.3568 33.0572C21.9906 32.1266 21.7894 31.113 21.7894 30.0527C21.7894 25.5172 25.4645 21.8422 30 21.8422" stroke="#25282D" stroke-width="2" stroke-linecap="round" stroke-linejoin="round"/>
<path d="M14 52L46 8" stroke="#25282D" stroke-width="2" stroke-linecap="round" stroke-linejoin="round"/>
</svg>
