<svg width="60" height="61" viewBox="0 0 60 61" fill="none" xmlns="http://www.w3.org/2000/svg">
<path d="M47 31.5L38.9231 40.5L35 36.9" stroke="#25282D" stroke-width="2" stroke-linecap="round" stroke-linejoin="round"/>
<path fill-rule="evenodd" clip-rule="evenodd" d="M53 23.5C53 21.2909 51.2091 19.5 49 19.5L32 19.5C29.7909 19.5 28 21.2909 28 23.5L28 54.5C28 56.7091 29.7909 58.5 32 58.5H49C51.2091 58.5 53 56.7091 53 54.5V23.5Z" stroke="#25282D" stroke-width="2"/>
<path d="M28 50.5H53" stroke="#25282D" stroke-width="2" stroke-linecap="round" stroke-linejoin="round"/>
<path d="M39 13.5V6.5C39 5.39543 38.1046 4.5 37 4.5H6C4.89543 4.5 4 5.39543 4 6.5V20.5C4 21.6046 4.89543 22.5 6 22.5H21.5" stroke="#25282D" stroke-width="2" stroke-linecap="round" stroke-linejoin="round"/>
<circle cx="13" cy="13.5" r="2" fill="#25282D"/>
<circle cx="21" cy="13.5" r="2" fill="#25282D"/>
<circle cx="29" cy="13.5" r="2" fill="#25282D"/>
</svg>
